<svg width="38" height="38" viewBox="0 0 38 38" fill="none" xmlns="http://www.w3.org/2000/svg">
<path d="M24.3835 3.16666C24.7002 4.90833 23.9085 6.65 22.9585 7.91666C22.0085 9.18333 20.2669 10.2917 18.5252 10.1333C18.2085 8.39166 19.0002 6.80833 19.9502 5.54166C21.0585 4.275 22.8002 3.325 24.3835 3.16666V3.16666ZM29.4502 30.7167C30.2419 29.45 30.7169 28.6583 31.3502 27.2333C26.4419 25.3333 25.6502 18.3667 30.5585 15.8333C29.1335 13.9333 27.0752 12.9833 25.0169 12.9833C23.5919 12.9833 22.6419 13.3 21.6919 13.6167C20.9002 13.9333 20.2669 14.0917 19.4752 14.0917C18.5252 14.0917 17.8919 13.775 16.9419 13.4583C15.9919 13.1417 15.0419 12.825 13.9335 12.825C11.7169 12.825 9.34186 14.0917 7.91686 16.4667C5.85852 19.6333 6.17519 25.8083 9.50019 30.875C10.9252 32.775 12.5085 34.8333 14.5669 34.8333C15.5169 34.8333 15.9919 34.5167 16.6252 34.3583C17.4169 34.0417 18.2085 33.725 19.4752 33.725C20.9002 33.725 21.5335 34.0417 22.3252 34.3583C22.9585 34.675 23.4335 34.8333 24.3835 34.8333C26.6002 34.8333 28.1835 32.4583 29.4502 30.7167V30.7167Z" stroke="#CAFB42" stroke-width="2" stroke-miterlimit="10" stroke-linecap="round" stroke-linejoin="round"/>
</svg>
