<svg width="38" height="38" viewBox="0 0 38 38" fill="none" xmlns="http://www.w3.org/2000/svg">
<path d="M14.2498 34.8333H23.7498C31.6665 34.8333 34.8332 31.6667 34.8332 23.75V14.25C34.8332 6.33334 31.6665 3.16667 23.7498 3.16667H14.2498C6.33317 3.16667 3.1665 6.33334 3.1665 14.25V23.75C3.1665 31.6667 6.33317 34.8333 14.2498 34.8333Z" stroke="#CAFB42" stroke-width="2" stroke-linecap="round" stroke-linejoin="round"/>
<path d="M19.0002 24.5417C19.7279 24.5417 20.4485 24.3983 21.1209 24.1198C21.7932 23.8413 22.4041 23.4331 22.9187 22.9185C23.4333 22.404 23.8415 21.793 24.12 21.1207C24.3985 20.4484 24.5418 19.7277 24.5418 19C24.5418 18.2723 24.3985 17.5516 24.12 16.8793C23.8415 16.2069 23.4333 15.596 22.9187 15.0814C22.4041 14.5669 21.7932 14.1587 21.1209 13.8802C20.4485 13.6017 19.7279 13.4583 19.0002 13.4583C17.5304 13.4583 16.1209 14.0422 15.0816 15.0814C14.0423 16.1207 13.4585 17.5303 13.4585 19C13.4585 20.4697 14.0423 21.8793 15.0816 22.9185C16.1209 23.9578 17.5304 24.5417 19.0002 24.5417V24.5417Z" stroke="#CAFB42" stroke-width="2" stroke-linecap="round" stroke-linejoin="round"/>
<path d="M27.9238 11.0833H27.9428" stroke="#CAFB42" stroke-width="3" stroke-linecap="round" stroke-linejoin="round"/>
</svg>
