<svg width="70" height="70" viewBox="0 0 70 70" fill="none" xmlns="http://www.w3.org/2000/svg">
<path fill-rule="evenodd" clip-rule="evenodd" d="M27.3317 59.5394C19.2806 57.027 12.973 50.7205 10.4606 42.6683C10.3709 42.3806 10.0691 42.2187 9.77484 42.3095C9.48828 42.4003 9.32641 42.7066 9.41609 42.9953C12.0367 51.3888 18.6113 57.9644 27.0047 60.5839C27.0594 60.6014 27.1152 60.6091 27.1688 60.6091C27.4006 60.6091 27.6172 60.4592 27.6905 60.2252C27.7802 59.9364 27.6194 59.6302 27.3317 59.5394ZM28.3117 56.4069C21.2877 54.215 15.785 48.7134 13.5931 41.6894C13.5034 41.4017 13.1994 41.2398 12.9073 41.3306C12.6197 41.4214 12.4589 41.7277 12.5486 42.0164C14.8488 49.3817 20.6183 55.1512 27.9847 57.4514C28.0383 57.4678 28.0941 57.4755 28.1477 57.4755C28.3806 57.4755 28.5961 57.3267 28.6705 57.0927C28.7602 56.8039 28.5994 56.4977 28.3117 56.4069ZM26.3517 62.6719C17.2747 59.838 10.162 52.7264 7.32813 43.6483C7.23735 43.3606 6.93766 43.1977 6.64234 43.2895C6.35359 43.3803 6.19391 43.6866 6.28359 43.9753C9.22469 53.3947 16.6053 60.7753 26.0258 63.7164C26.0794 63.7339 26.1352 63.7416 26.1888 63.7416C26.4217 63.7416 26.6372 63.5917 26.7116 63.3577C26.8013 63.07 26.6405 62.7627 26.3517 62.6719ZM42.9942 9.41719C42.7033 9.32641 42.3992 9.48937 42.3084 9.77594C42.2188 10.0647 42.3806 10.3709 42.6672 10.4606C50.7194 12.9741 57.0259 19.2806 59.5383 27.3317C59.6127 27.5658 59.8281 27.7156 60.0611 27.7156C60.1147 27.7156 60.1694 27.708 60.2241 27.6905C60.5117 27.6008 60.6725 27.2945 60.5828 27.0058C57.9633 18.6123 51.3877 12.0367 42.9942 9.41719ZM42.0164 12.5508C41.7233 12.4578 41.4214 12.6219 41.3306 12.9095C41.2409 13.1983 41.4017 13.5045 41.6894 13.5942C48.7123 15.7872 54.2128 21.2877 56.4058 28.3106C56.4791 28.5447 56.6956 28.6945 56.9286 28.6945C56.9811 28.6945 57.0369 28.6869 57.0916 28.6694C57.3803 28.5797 57.54 28.2734 57.4503 27.9847C55.1513 20.6194 49.3806 14.8498 42.0164 12.5508ZM63.7164 26.0269C60.7742 16.6064 53.3947 9.22578 43.9742 6.28469C43.6811 6.19172 43.3792 6.35578 43.2884 6.64344C43.1988 6.93219 43.3584 7.23844 43.6472 7.32813C52.7264 10.1631 59.838 17.2747 62.6719 26.3528C62.7452 26.5869 62.9606 26.7367 63.1936 26.7367C63.2472 26.7367 63.303 26.7291 63.3577 26.7116C63.6453 26.6219 63.8061 26.3156 63.7164 26.0269ZM35 36.0938C34.3963 36.0938 33.9063 35.6038 33.9063 35C33.9063 34.3973 34.3963 33.9063 35 33.9063C35.6027 33.9063 36.0938 34.3973 36.0938 35C36.0938 35.6038 35.6027 36.0938 35 36.0938ZM35 32.8125C33.7914 32.8125 32.8125 33.7925 32.8125 35C32.8125 36.2086 33.7914 37.1875 35 37.1875C36.2075 37.1875 37.1875 36.2086 37.1875 35C37.1875 33.7925 36.2075 32.8125 35 32.8125ZM35 44.8438C29.5717 44.8438 25.1563 40.4283 25.1563 35C25.1563 29.5728 29.5717 25.1563 35 25.1563C40.4272 25.1563 44.8438 29.5728 44.8438 35C44.8438 40.4283 40.4272 44.8438 35 44.8438ZM35 22.9688C28.3555 22.9688 22.9688 28.3555 22.9688 35C22.9688 41.6456 28.3555 47.0313 35 47.0313C41.6445 47.0313 47.0313 41.6456 47.0313 35C47.0313 28.3555 41.6445 22.9688 35 22.9688ZM35 67.8125C16.9072 67.8125 2.1875 53.0939 2.1875 35C2.1875 16.9072 16.9072 2.1875 35 2.1875C53.0928 2.1875 67.8125 16.9072 67.8125 35C67.8125 53.0939 53.0928 67.8125 35 67.8125ZM35 0C15.6702 0 0 15.6702 0 35C0 54.3309 15.6702 70 35 70C54.3299 70 70 54.3309 70 35C70 15.6702 54.3299 0 35 0Z" fill="#CAFB42"/>
</svg>
